G04 #@! TF.GenerationSoftware,KiCad,Pcbnew,9.0.2*
G04 #@! TF.CreationDate,2025-07-03T20:49:17-05:00*
G04 #@! TF.ProjectId,pathfinder,70617468-6669-46e6-9465-722e6b696361,rev?*
G04 #@! TF.SameCoordinates,Original*
G04 #@! TF.FileFunction,Soldermask,Top*
G04 #@! TF.FilePolarity,Negative*
%FSLAX46Y46*%
G04 Gerber Fmt 4.6, Leading zero omitted, Abs format (unit mm)*
G04 Created by KiCad (PCBNEW 9.0.2) date 2025-07-03 20:49:17*
%MOMM*%
%LPD*%
G01*
G04 APERTURE LIST*
G04 Aperture macros list*
%AMRoundRect*
0 Rectangle with rounded corners*
0 $1 Rounding radius*
0 $2 $3 $4 $5 $6 $7 $8 $9 X,Y pos of 4 corners*
0 Add a 4 corners polygon primitive as box body*
4,1,4,$2,$3,$4,$5,$6,$7,$8,$9,$2,$3,0*
0 Add four circle primitives for the rounded corners*
1,1,$1+$1,$2,$3*
1,1,$1+$1,$4,$5*
1,1,$1+$1,$6,$7*
1,1,$1+$1,$8,$9*
0 Add four rect primitives between the rounded corners*
20,1,$1+$1,$2,$3,$4,$5,0*
20,1,$1+$1,$4,$5,$6,$7,0*
20,1,$1+$1,$6,$7,$8,$9,0*
20,1,$1+$1,$8,$9,$2,$3,0*%
G04 Aperture macros list end*
%ADD10RoundRect,0.152400X-0.609600X1.063600X-0.609600X-1.063600X0.609600X-1.063600X0.609600X1.063600X0*%
%ADD11C,1.524000*%
%ADD12RoundRect,0.152400X0.609600X-1.063600X0.609600X1.063600X-0.609600X1.063600X-0.609600X-1.063600X0*%
%ADD13C,2.019000*%
%ADD14RoundRect,0.102000X0.907500X-0.907500X0.907500X0.907500X-0.907500X0.907500X-0.907500X-0.907500X0*%
%ADD15C,1.400000*%
%ADD16C,1.700000*%
%ADD17C,4.000000*%
%ADD18C,2.200000*%
G04 APERTURE END LIST*
D10*
X88841000Y-92835000D03*
D11*
X88841000Y-92000000D03*
D10*
X91381000Y-92835000D03*
D11*
X91381000Y-92000000D03*
D10*
X93921000Y-92835000D03*
D11*
X93921000Y-92000000D03*
D10*
X96461000Y-92835000D03*
D11*
X96461000Y-92000000D03*
D10*
X99001000Y-92835000D03*
D11*
X99001000Y-92000000D03*
D10*
X101541000Y-92835000D03*
D11*
X101541000Y-92000000D03*
D10*
X104081000Y-92835000D03*
D11*
X104081000Y-92000000D03*
X104081000Y-76760000D03*
D12*
X104081000Y-75925000D03*
D11*
X101541000Y-76760000D03*
D12*
X101541000Y-75925000D03*
D11*
X99001000Y-76760000D03*
D12*
X99001000Y-75925000D03*
D11*
X96461000Y-76760000D03*
D12*
X96461000Y-75925000D03*
D11*
X93921000Y-76760000D03*
D12*
X93921000Y-75925000D03*
D11*
X91381000Y-76760000D03*
D12*
X91381000Y-75925000D03*
D11*
X88841000Y-76760000D03*
D12*
X88841000Y-75925000D03*
D13*
X136600000Y-84730000D03*
D14*
X136600000Y-87270000D03*
D13*
X112933000Y-84730000D03*
D14*
X112933000Y-87270000D03*
D15*
X127140000Y-92000000D03*
X122060000Y-92000000D03*
X115540000Y-92000000D03*
X110460000Y-92000000D03*
D16*
X129940000Y-105000000D03*
D17*
X135020000Y-105000000D03*
D16*
X140100000Y-105000000D03*
D18*
X137560000Y-99920000D03*
X131210000Y-102460000D03*
D16*
X110890000Y-105000000D03*
D17*
X115970000Y-105000000D03*
D16*
X121050000Y-105000000D03*
D18*
X118510000Y-99920000D03*
X112160000Y-102460000D03*
D15*
X139140000Y-92000000D03*
X134060000Y-92000000D03*
D13*
X124600000Y-84730000D03*
D14*
X124600000Y-87270000D03*
D16*
X91840000Y-105000000D03*
D17*
X96920000Y-105000000D03*
D16*
X102000000Y-105000000D03*
D18*
X99460000Y-99920000D03*
X93110000Y-102460000D03*
M02*
